<svg xmlns="http://www.w3.org/2000/svg" viewBox="0 0 900 520" width="900" height="520" font-family="'DM Sans',system-ui,sans-serif">
  <rect width="900" height="520" rx="18" fill="#0B1017"/>
  <text x="40" y="58" fill="#F5F1E8" font-size="27" font-weight="700">moregroup.estate</text>
  <text x="40" y="88" fill="#8C979D" font-size="16">Search impressions, by month</text>
  <g transform="translate(860, 0)">
    <text x="0" y="58" fill="#3DB8A9" font-size="27" font-weight="700" text-anchor="end">1 005 → 50 809</text>
    <text x="0" y="88" fill="#E8B84A" font-size="16" text-anchor="end">51x</text>
  </g>
  <g transform="translate(30, 110)"><g><line x1="78" y1="258.0" x2="816" y2="258.0" stroke="rgba(255,255,255,.07)" stroke-width="1"/><text x="66" y="262.0" fill="#8C979D" font-size="13" text-anchor="end">0</text><line x1="78" y1="198.0" x2="816" y2="198.0" stroke="rgba(255,255,255,.07)" stroke-width="1"/><text x="66" y="202.0" fill="#8C979D" font-size="13" text-anchor="end">13 718</text><line x1="78" y1="138.0" x2="816" y2="138.0" stroke="rgba(255,255,255,.07)" stroke-width="1"/><text x="66" y="142.0" fill="#8C979D" font-size="13" text-anchor="end">27 437</text><line x1="78" y1="78.0" x2="816" y2="78.0" stroke="rgba(255,255,255,.07)" stroke-width="1"/><text x="66" y="82.0" fill="#8C979D" font-size="13" text-anchor="end">41 155</text><line x1="78" y1="18.0" x2="816" y2="18.0" stroke="rgba(255,255,255,.07)" stroke-width="1"/><text x="66" y="22.0" fill="#8C979D" font-size="13" text-anchor="end">54 874</text><rect x="107.5" y="253.6" width="64.0" height="4.4" rx="4" fill="rgba(61,184,169,.18)"/><rect x="230.5" y="215.8" width="64.0" height="42.2" rx="4" fill="rgba(61,184,169,.18)"/><rect x="353.5" y="154.9" width="64.0" height="103.1" rx="4" fill="rgba(61,184,169,.18)"/><rect x="476.5" y="135.4" width="64.0" height="122.6" rx="4" fill="rgba(61,184,169,.18)"/><rect x="599.5" y="93.3" width="64.0" height="164.7" rx="4" fill="rgba(61,184,169,.18)"/><rect x="722.5" y="35.8" width="64.0" height="222.2" rx="4" fill="rgba(61,184,169,.18)"/><path d="M139.5,253.6 L262.5,215.8 L385.5,154.9 L508.5,135.4 L631.5,93.3 L754.5,35.8" fill="none" stroke="#3DB8A9" stroke-width="2.5" stroke-linejoin="round"/><circle cx="139.5" cy="253.6" r="4.5" fill="#3DB8A9"/><circle cx="262.5" cy="215.8" r="4.5" fill="#3DB8A9"/><circle cx="385.5" cy="154.9" r="4.5" fill="#3DB8A9"/><circle cx="508.5" cy="135.4" r="4.5" fill="#3DB8A9"/><circle cx="631.5" cy="93.3" r="4.5" fill="#3DB8A9"/><circle cx="754.5" cy="35.8" r="4.5" fill="#3DB8A9"/><text x="754.5" y="21.8" fill="#F5F1E8" font-size="17" font-weight="700" text-anchor="end">50 809</text><text x="139.5" y="286" fill="#8C979D" font-size="13" text-anchor="middle">Mar</text><text x="262.5" y="286" fill="#8C979D" font-size="13" text-anchor="middle">Apr</text><text x="385.5" y="286" fill="#8C979D" font-size="13" text-anchor="middle">May</text><text x="508.5" y="286" fill="#8C979D" font-size="13" text-anchor="middle">Jun</text><text x="631.5" y="286" fill="#8C979D" font-size="13" text-anchor="middle">Jul</text><text x="754.5" y="286" fill="#8C979D" font-size="13" text-anchor="middle">Aug</text></g></g>
  <line x1="40" y1="442" x2="860" y2="442" stroke="rgba(255,255,255,.07)"/>
  <text x="40" y="470" fill="#8C979D" font-size="14">Google Search Console, Mar 2026 to Aug 2026. Measured 15.09.2026.</text>
  <text x="40" y="494" fill="#8C979D" font-size="14">Verifiable in the owner’s own Search Console</text>
  <text x="860" y="494" fill="#8C979D" font-size="14" text-anchor="end">oper-stack.com</text>
</svg>