<svg xmlns="http://www.w3.org/2000/svg" viewBox="0 0 900 520" width="900" height="520" font-family="'DM Sans',system-ui,sans-serif">
  <rect width="900" height="520" rx="18" fill="#0B1017"/>
  <text x="40" y="58" fill="#F5F1E8" font-size="27" font-weight="700">Search impressions across the network</text>
  <text x="40" y="88" fill="#8C979D" font-size="16">13 sites, compared with Jun 2026, when the network was complete</text>
  <text x="860" y="58" fill="#3DB8A9" font-size="27" font-weight="700" text-anchor="end">46 864 → 94 125</text>
  <text x="860" y="88" fill="#E8B84A" font-size="16" text-anchor="end">2x</text>
  <g transform="translate(30, 110)"><g><line x1="78" y1="258.0" x2="816" y2="258.0" stroke="rgba(255,255,255,.07)" stroke-width="1"/><text x="66" y="262.0" fill="#8C979D" font-size="13" text-anchor="end">0</text><line x1="78" y1="198.0" x2="816" y2="198.0" stroke="rgba(255,255,255,.07)" stroke-width="1"/><text x="66" y="202.0" fill="#8C979D" font-size="13" text-anchor="end">25 414</text><line x1="78" y1="138.0" x2="816" y2="138.0" stroke="rgba(255,255,255,.07)" stroke-width="1"/><text x="66" y="142.0" fill="#8C979D" font-size="13" text-anchor="end">50 828</text><line x1="78" y1="78.0" x2="816" y2="78.0" stroke="rgba(255,255,255,.07)" stroke-width="1"/><text x="66" y="82.0" fill="#8C979D" font-size="13" text-anchor="end">76 241</text><line x1="78" y1="18.0" x2="816" y2="18.0" stroke="rgba(255,255,255,.07)" stroke-width="1"/><text x="66" y="22.0" fill="#8C979D" font-size="13" text-anchor="end">101 655</text><rect x="107.5" y="255.6" width="64.0" height="2.4" rx="4" fill="rgba(61,184,169,.18)"/><rect x="230.5" y="231.4" width="64.0" height="26.6" rx="4" fill="rgba(61,184,169,.18)"/><rect x="353.5" y="196.2" width="64.0" height="61.8" rx="4" fill="rgba(61,184,169,.18)"/><rect x="476.5" y="147.4" width="64.0" height="110.6" rx="4" fill="rgba(61,184,169,.18)"/><rect x="599.5" y="71.2" width="64.0" height="186.8" rx="4" fill="rgba(61,184,169,.18)"/><rect x="722.5" y="35.8" width="64.0" height="222.2" rx="4" fill="rgba(61,184,169,.18)"/><path d="M139.5,255.6 L262.5,231.4 L385.5,196.2 L508.5,147.4 L631.5,71.2 L754.5,35.8" fill="none" stroke="#3DB8A9" stroke-width="2.5" stroke-linejoin="round"/><circle cx="139.5" cy="255.6" r="4.5" fill="#3DB8A9"/><circle cx="262.5" cy="231.4" r="4.5" fill="#3DB8A9"/><circle cx="385.5" cy="196.2" r="4.5" fill="#3DB8A9"/><circle cx="508.5" cy="147.4" r="4.5" fill="#3DB8A9"/><circle cx="631.5" cy="71.2" r="4.5" fill="#3DB8A9"/><circle cx="754.5" cy="35.8" r="4.5" fill="#3DB8A9"/><text x="754.5" y="21.8" fill="#F5F1E8" font-size="17" font-weight="700" text-anchor="end">94 125</text><text x="139.5" y="276" fill="#8C979D" font-size="13" text-anchor="middle">Mar</text><text x="139.5" y="292" fill="#8C979D" font-size="11" text-anchor="middle" opacity="0.75">1 site</text><text x="262.5" y="276" fill="#8C979D" font-size="13" text-anchor="middle">Apr</text><text x="262.5" y="292" fill="#8C979D" font-size="11" text-anchor="middle" opacity="0.75">2 sites</text><text x="385.5" y="276" fill="#8C979D" font-size="13" text-anchor="middle">May</text><text x="385.5" y="292" fill="#8C979D" font-size="11" text-anchor="middle" opacity="0.75">2 sites</text><text x="508.5" y="276" fill="#8C979D" font-size="13" text-anchor="middle">Jun</text><text x="508.5" y="292" fill="#8C979D" font-size="11" text-anchor="middle" opacity="0.75">13 sites</text><text x="631.5" y="276" fill="#8C979D" font-size="13" text-anchor="middle">Jul</text><text x="631.5" y="292" fill="#8C979D" font-size="11" text-anchor="middle" opacity="0.75">13 sites</text><text x="754.5" y="276" fill="#8C979D" font-size="13" text-anchor="middle">Aug</text><text x="754.5" y="292" fill="#8C979D" font-size="11" text-anchor="middle" opacity="0.75">13 sites</text></g></g>
  <line x1="40" y1="442" x2="860" y2="442" stroke="rgba(255,255,255,.07)"/>
  <text x="40" y="470" fill="#8C979D" font-size="14">Google Search Console, Mar 2026 to Aug 2026. Measured 15.09.2026.</text>
  <text x="40" y="494" fill="#8C979D" font-size="14">Verifiable in the owner’s own Search Console</text>
  <text x="860" y="494" fill="#8C979D" font-size="14" text-anchor="end">oper-stack.com</text>
</svg>