<svg xmlns="http://www.w3.org/2000/svg" viewBox="0 0 900 520" width="900" height="520" font-family="'DM Sans',system-ui,sans-serif">
  <rect width="900" height="520" rx="18" fill="#0B1017"/>
  <text x="40" y="58" fill="#F5F1E8" font-size="26" font-weight="700">Can an AI read this site and quote it</text>
  <text x="40" y="88" fill="#8C979D" font-size="16">Eight technical signals per site, measured live</text>

  <text x="70" y="128" fill="#8C979D" font-size="15" font-weight="700">Before</text>
  <text x="70" y="150" fill="#4A5157" font-size="22" font-weight="700">32%</text>
  <text x="686" y="128" fill="#8C979D" font-size="15" font-weight="700">After</text>
  <text x="686" y="150" fill="#3DB8A9" font-size="22" font-weight="700">100%</text>

  <rect x="70" y="168" width="15" height="15" rx="3" fill="rgba(255,255,255,.10)"/><rect x="88" y="168" width="15" height="15" rx="3" fill="rgba(255,255,255,.10)"/><rect x="106" y="168" width="15" height="15" rx="3" fill="rgba(255,255,255,.10)"/><rect x="124" y="168" width="15" height="15" rx="3" fill="rgba(255,255,255,.10)"/><rect x="142" y="168" width="15" height="15" rx="3" fill="rgba(255,255,255,.10)"/><rect x="160" y="168" width="15" height="15" rx="3" fill="rgba(255,255,255,.10)"/><rect x="178" y="168" width="15" height="15" rx="3" fill="#3DB8A9"/><rect x="196" y="168" width="15" height="15" rx="3" fill="#3DB8A9"/><rect x="70" y="186" width="15" height="15" rx="3" fill="rgba(255,255,255,.10)"/><rect x="88" y="186" width="15" height="15" rx="3" fill="rgba(255,255,255,.10)"/><rect x="106" y="186" width="15" height="15" rx="3" fill="rgba(255,255,255,.10)"/><rect x="124" y="186" width="15" height="15" rx="3" fill="rgba(255,255,255,.10)"/><rect x="142" y="186" width="15" height="15" rx="3" fill="rgba(255,255,255,.10)"/><rect x="160" y="186" width="15" height="15" rx="3" fill="rgba(255,255,255,.10)"/><rect x="178" y="186" width="15" height="15" rx="3" fill="#3DB8A9"/><rect x="196" y="186" width="15" height="15" rx="3" fill="#3DB8A9"/><rect x="70" y="204" width="15" height="15" rx="3" fill="rgba(255,255,255,.10)"/><rect x="88" y="204" width="15" height="15" rx="3" fill="rgba(255,255,255,.10)"/><rect x="106" y="204" width="15" height="15" rx="3" fill="rgba(255,255,255,.10)"/><rect x="124" y="204" width="15" height="15" rx="3" fill="rgba(255,255,255,.10)"/><rect x="142" y="204" width="15" height="15" rx="3" fill="rgba(255,255,255,.10)"/><rect x="160" y="204" width="15" height="15" rx="3" fill="rgba(255,255,255,.10)"/><rect x="178" y="204" width="15" height="15" rx="3" fill="#3DB8A9"/><rect x="196" y="204" width="15" height="15" rx="3" fill="#3DB8A9"/><rect x="70" y="222" width="15" height="15" rx="3" fill="rgba(255,255,255,.10)"/><rect x="88" y="222" width="15" height="15" rx="3" fill="rgba(255,255,255,.10)"/><rect x="106" y="222" width="15" height="15" rx="3" fill="rgba(255,255,255,.10)"/><rect x="124" y="222" width="15" height="15" rx="3" fill="rgba(255,255,255,.10)"/><rect x="142" y="222" width="15" height="15" rx="3" fill="rgba(255,255,255,.10)"/><rect x="160" y="222" width="15" height="15" rx="3" fill="rgba(255,255,255,.10)"/><rect x="178" y="222" width="15" height="15" rx="3" fill="#3DB8A9"/><rect x="196" y="222" width="15" height="15" rx="3" fill="#3DB8A9"/><rect x="70" y="240" width="15" height="15" rx="3" fill="rgba(255,255,255,.10)"/><rect x="88" y="240" width="15" height="15" rx="3" fill="rgba(255,255,255,.10)"/><rect x="106" y="240" width="15" height="15" rx="3" fill="rgba(255,255,255,.10)"/><rect x="124" y="240" width="15" height="15" rx="3" fill="rgba(255,255,255,.10)"/><rect x="142" y="240" width="15" height="15" rx="3" fill="rgba(255,255,255,.10)"/><rect x="160" y="240" width="15" height="15" rx="3" fill="rgba(255,255,255,.10)"/><rect x="178" y="240" width="15" height="15" rx="3" fill="#3DB8A9"/><rect x="196" y="240" width="15" height="15" rx="3" fill="#3DB8A9"/><rect x="70" y="258" width="15" height="15" rx="3" fill="rgba(255,255,255,.10)"/><rect x="88" y="258" width="15" height="15" rx="3" fill="rgba(255,255,255,.10)"/><rect x="106" y="258" width="15" height="15" rx="3" fill="rgba(255,255,255,.10)"/><rect x="124" y="258" width="15" height="15" rx="3" fill="rgba(255,255,255,.10)"/><rect x="142" y="258" width="15" height="15" rx="3" fill="rgba(255,255,255,.10)"/><rect x="160" y="258" width="15" height="15" rx="3" fill="rgba(255,255,255,.10)"/><rect x="178" y="258" width="15" height="15" rx="3" fill="#3DB8A9"/><rect x="196" y="258" width="15" height="15" rx="3" fill="#3DB8A9"/><rect x="70" y="276" width="15" height="15" rx="3" fill="rgba(255,255,255,.10)"/><rect x="88" y="276" width="15" height="15" rx="3" fill="rgba(255,255,255,.10)"/><rect x="106" y="276" width="15" height="15" rx="3" fill="rgba(255,255,255,.10)"/><rect x="124" y="276" width="15" height="15" rx="3" fill="rgba(255,255,255,.10)"/><rect x="142" y="276" width="15" height="15" rx="3" fill="rgba(255,255,255,.10)"/><rect x="160" y="276" width="15" height="15" rx="3" fill="rgba(255,255,255,.10)"/><rect x="178" y="276" width="15" height="15" rx="3" fill="#3DB8A9"/><rect x="196" y="276" width="15" height="15" rx="3" fill="#3DB8A9"/><rect x="70" y="294" width="15" height="15" rx="3" fill="rgba(255,255,255,.10)"/><rect x="88" y="294" width="15" height="15" rx="3" fill="rgba(255,255,255,.10)"/><rect x="106" y="294" width="15" height="15" rx="3" fill="rgba(255,255,255,.10)"/><rect x="124" y="294" width="15" height="15" rx="3" fill="rgba(255,255,255,.10)"/><rect x="142" y="294" width="15" height="15" rx="3" fill="rgba(255,255,255,.10)"/><rect x="160" y="294" width="15" height="15" rx="3" fill="rgba(255,255,255,.10)"/><rect x="178" y="294" width="15" height="15" rx="3" fill="#3DB8A9"/><rect x="196" y="294" width="15" height="15" rx="3" fill="#3DB8A9"/><rect x="70" y="312" width="15" height="15" rx="3" fill="rgba(255,255,255,.10)"/><rect x="88" y="312" width="15" height="15" rx="3" fill="rgba(255,255,255,.10)"/><rect x="106" y="312" width="15" height="15" rx="3" fill="rgba(255,255,255,.10)"/><rect x="124" y="312" width="15" height="15" rx="3" fill="rgba(255,255,255,.10)"/><rect x="142" y="312" width="15" height="15" rx="3" fill="rgba(255,255,255,.10)"/><rect x="160" y="312" width="15" height="15" rx="3" fill="rgba(255,255,255,.10)"/><rect x="178" y="312" width="15" height="15" rx="3" fill="#3DB8A9"/><rect x="196" y="312" width="15" height="15" rx="3" fill="#3DB8A9"/><rect x="70" y="330" width="15" height="15" rx="3" fill="rgba(255,255,255,.10)"/><rect x="88" y="330" width="15" height="15" rx="3" fill="rgba(255,255,255,.10)"/><rect x="106" y="330" width="15" height="15" rx="3" fill="rgba(255,255,255,.10)"/><rect x="124" y="330" width="15" height="15" rx="3" fill="rgba(255,255,255,.10)"/><rect x="142" y="330" width="15" height="15" rx="3" fill="rgba(255,255,255,.10)"/><rect x="160" y="330" width="15" height="15" rx="3" fill="rgba(255,255,255,.10)"/><rect x="178" y="330" width="15" height="15" rx="3" fill="#3DB8A9"/><rect x="196" y="330" width="15" height="15" rx="3" fill="#3DB8A9"/><rect x="70" y="348" width="15" height="15" rx="3" fill="#3DB8A9"/><rect x="88" y="348" width="15" height="15" rx="3" fill="#3DB8A9"/><rect x="106" y="348" width="15" height="15" rx="3" fill="#3DB8A9"/><rect x="124" y="348" width="15" height="15" rx="3" fill="#3DB8A9"/><rect x="142" y="348" width="15" height="15" rx="3" fill="#3DB8A9"/><rect x="160" y="348" width="15" height="15" rx="3" fill="rgba(255,255,255,.10)"/><rect x="178" y="348" width="15" height="15" rx="3" fill="#3DB8A9"/><rect x="196" y="348" width="15" height="15" rx="3" fill="#3DB8A9"/><rect x="70" y="366" width="15" height="15" rx="3" fill="#3DB8A9"/><rect x="88" y="366" width="15" height="15" rx="3" fill="#3DB8A9"/><rect x="106" y="366" width="15" height="15" rx="3" fill="#3DB8A9"/><rect x="124" y="366" width="15" height="15" rx="3" fill="rgba(255,255,255,.10)"/><rect x="142" y="366" width="15" height="15" rx="3" fill="rgba(255,255,255,.10)"/><rect x="160" y="366" width="15" height="15" rx="3" fill="rgba(255,255,255,.10)"/><rect x="178" y="366" width="15" height="15" rx="3" fill="#3DB8A9"/><rect x="196" y="366" width="15" height="15" rx="3" fill="#3DB8A9"/><rect x="70" y="384" width="15" height="15" rx="3" fill="rgba(255,255,255,.10)"/><rect x="88" y="384" width="15" height="15" rx="3" fill="rgba(255,255,255,.10)"/><rect x="106" y="384" width="15" height="15" rx="3" fill="rgba(255,255,255,.10)"/><rect x="124" y="384" width="15" height="15" rx="3" fill="rgba(255,255,255,.10)"/><rect x="142" y="384" width="15" height="15" rx="3" fill="rgba(255,255,255,.10)"/><rect x="160" y="384" width="15" height="15" rx="3" fill="rgba(255,255,255,.10)"/><rect x="178" y="384" width="15" height="15" rx="3" fill="#3DB8A9"/><rect x="196" y="384" width="15" height="15" rx="3" fill="#3DB8A9"/><rect x="70" y="402" width="15" height="15" rx="3" fill="rgba(255,255,255,.10)"/><rect x="88" y="402" width="15" height="15" rx="3" fill="rgba(255,255,255,.10)"/><rect x="106" y="402" width="15" height="15" rx="3" fill="rgba(255,255,255,.10)"/><rect x="124" y="402" width="15" height="15" rx="3" fill="rgba(255,255,255,.10)"/><rect x="142" y="402" width="15" height="15" rx="3" fill="rgba(255,255,255,.10)"/><rect x="160" y="402" width="15" height="15" rx="3" fill="rgba(255,255,255,.10)"/><rect x="178" y="402" width="15" height="15" rx="3" fill="#3DB8A9"/><rect x="196" y="402" width="15" height="15" rx="3" fill="#3DB8A9"/><rect x="70" y="420" width="15" height="15" rx="3" fill="rgba(255,255,255,.10)"/><rect x="88" y="420" width="15" height="15" rx="3" fill="rgba(255,255,255,.10)"/><rect x="106" y="420" width="15" height="15" rx="3" fill="rgba(255,255,255,.10)"/><rect x="124" y="420" width="15" height="15" rx="3" fill="rgba(255,255,255,.10)"/><rect x="142" y="420" width="15" height="15" rx="3" fill="rgba(255,255,255,.10)"/><rect x="160" y="420" width="15" height="15" rx="3" fill="rgba(255,255,255,.10)"/><rect x="178" y="420" width="15" height="15" rx="3" fill="#3DB8A9"/><rect x="196" y="420" width="15" height="15" rx="3" fill="#3DB8A9"/>
  <rect x="686" y="168" width="15" height="15" rx="3" fill="#3DB8A9"/><rect x="704" y="168" width="15" height="15" rx="3" fill="#3DB8A9"/><rect x="722" y="168" width="15" height="15" rx="3" fill="#3DB8A9"/><rect x="740" y="168" width="15" height="15" rx="3" fill="#3DB8A9"/><rect x="758" y="168" width="15" height="15" rx="3" fill="#3DB8A9"/><rect x="776" y="168" width="15" height="15" rx="3" fill="#3DB8A9"/><rect x="794" y="168" width="15" height="15" rx="3" fill="#3DB8A9"/><rect x="812" y="168" width="15" height="15" rx="3" fill="#3DB8A9"/><rect x="686" y="186" width="15" height="15" rx="3" fill="#3DB8A9"/><rect x="704" y="186" width="15" height="15" rx="3" fill="#3DB8A9"/><rect x="722" y="186" width="15" height="15" rx="3" fill="#3DB8A9"/><rect x="740" y="186" width="15" height="15" rx="3" fill="#3DB8A9"/><rect x="758" y="186" width="15" height="15" rx="3" fill="#3DB8A9"/><rect x="776" y="186" width="15" height="15" rx="3" fill="#3DB8A9"/><rect x="794" y="186" width="15" height="15" rx="3" fill="#3DB8A9"/><rect x="812" y="186" width="15" height="15" rx="3" fill="#3DB8A9"/><rect x="686" y="204" width="15" height="15" rx="3" fill="#3DB8A9"/><rect x="704" y="204" width="15" height="15" rx="3" fill="#3DB8A9"/><rect x="722" y="204" width="15" height="15" rx="3" fill="#3DB8A9"/><rect x="740" y="204" width="15" height="15" rx="3" fill="#3DB8A9"/><rect x="758" y="204" width="15" height="15" rx="3" fill="#3DB8A9"/><rect x="776" y="204" width="15" height="15" rx="3" fill="#3DB8A9"/><rect x="794" y="204" width="15" height="15" rx="3" fill="#3DB8A9"/><rect x="812" y="204" width="15" height="15" rx="3" fill="#3DB8A9"/><rect x="686" y="222" width="15" height="15" rx="3" fill="#3DB8A9"/><rect x="704" y="222" width="15" height="15" rx="3" fill="#3DB8A9"/><rect x="722" y="222" width="15" height="15" rx="3" fill="#3DB8A9"/><rect x="740" y="222" width="15" height="15" rx="3" fill="#3DB8A9"/><rect x="758" y="222" width="15" height="15" rx="3" fill="#3DB8A9"/><rect x="776" y="222" width="15" height="15" rx="3" fill="#3DB8A9"/><rect x="794" y="222" width="15" height="15" rx="3" fill="#3DB8A9"/><rect x="812" y="222" width="15" height="15" rx="3" fill="#3DB8A9"/><rect x="686" y="240" width="15" height="15" rx="3" fill="#3DB8A9"/><rect x="704" y="240" width="15" height="15" rx="3" fill="#3DB8A9"/><rect x="722" y="240" width="15" height="15" rx="3" fill="#3DB8A9"/><rect x="740" y="240" width="15" height="15" rx="3" fill="#3DB8A9"/><rect x="758" y="240" width="15" height="15" rx="3" fill="#3DB8A9"/><rect x="776" y="240" width="15" height="15" rx="3" fill="#3DB8A9"/><rect x="794" y="240" width="15" height="15" rx="3" fill="#3DB8A9"/><rect x="812" y="240" width="15" height="15" rx="3" fill="#3DB8A9"/><rect x="686" y="258" width="15" height="15" rx="3" fill="#3DB8A9"/><rect x="704" y="258" width="15" height="15" rx="3" fill="#3DB8A9"/><rect x="722" y="258" width="15" height="15" rx="3" fill="#3DB8A9"/><rect x="740" y="258" width="15" height="15" rx="3" fill="#3DB8A9"/><rect x="758" y="258" width="15" height="15" rx="3" fill="#3DB8A9"/><rect x="776" y="258" width="15" height="15" rx="3" fill="#3DB8A9"/><rect x="794" y="258" width="15" height="15" rx="3" fill="#3DB8A9"/><rect x="812" y="258" width="15" height="15" rx="3" fill="#3DB8A9"/><rect x="686" y="276" width="15" height="15" rx="3" fill="#3DB8A9"/><rect x="704" y="276" width="15" height="15" rx="3" fill="#3DB8A9"/><rect x="722" y="276" width="15" height="15" rx="3" fill="#3DB8A9"/><rect x="740" y="276" width="15" height="15" rx="3" fill="#3DB8A9"/><rect x="758" y="276" width="15" height="15" rx="3" fill="#3DB8A9"/><rect x="776" y="276" width="15" height="15" rx="3" fill="#3DB8A9"/><rect x="794" y="276" width="15" height="15" rx="3" fill="#3DB8A9"/><rect x="812" y="276" width="15" height="15" rx="3" fill="#3DB8A9"/><rect x="686" y="294" width="15" height="15" rx="3" fill="#3DB8A9"/><rect x="704" y="294" width="15" height="15" rx="3" fill="#3DB8A9"/><rect x="722" y="294" width="15" height="15" rx="3" fill="#3DB8A9"/><rect x="740" y="294" width="15" height="15" rx="3" fill="#3DB8A9"/><rect x="758" y="294" width="15" height="15" rx="3" fill="#3DB8A9"/><rect x="776" y="294" width="15" height="15" rx="3" fill="#3DB8A9"/><rect x="794" y="294" width="15" height="15" rx="3" fill="#3DB8A9"/><rect x="812" y="294" width="15" height="15" rx="3" fill="#3DB8A9"/><rect x="686" y="312" width="15" height="15" rx="3" fill="#3DB8A9"/><rect x="704" y="312" width="15" height="15" rx="3" fill="#3DB8A9"/><rect x="722" y="312" width="15" height="15" rx="3" fill="#3DB8A9"/><rect x="740" y="312" width="15" height="15" rx="3" fill="#3DB8A9"/><rect x="758" y="312" width="15" height="15" rx="3" fill="#3DB8A9"/><rect x="776" y="312" width="15" height="15" rx="3" fill="#3DB8A9"/><rect x="794" y="312" width="15" height="15" rx="3" fill="#3DB8A9"/><rect x="812" y="312" width="15" height="15" rx="3" fill="#3DB8A9"/><rect x="686" y="330" width="15" height="15" rx="3" fill="#3DB8A9"/><rect x="704" y="330" width="15" height="15" rx="3" fill="#3DB8A9"/><rect x="722" y="330" width="15" height="15" rx="3" fill="#3DB8A9"/><rect x="740" y="330" width="15" height="15" rx="3" fill="#3DB8A9"/><rect x="758" y="330" width="15" height="15" rx="3" fill="#3DB8A9"/><rect x="776" y="330" width="15" height="15" rx="3" fill="#3DB8A9"/><rect x="794" y="330" width="15" height="15" rx="3" fill="#3DB8A9"/><rect x="812" y="330" width="15" height="15" rx="3" fill="#3DB8A9"/><rect x="686" y="348" width="15" height="15" rx="3" fill="#3DB8A9"/><rect x="704" y="348" width="15" height="15" rx="3" fill="#3DB8A9"/><rect x="722" y="348" width="15" height="15" rx="3" fill="#3DB8A9"/><rect x="740" y="348" width="15" height="15" rx="3" fill="#3DB8A9"/><rect x="758" y="348" width="15" height="15" rx="3" fill="#3DB8A9"/><rect x="776" y="348" width="15" height="15" rx="3" fill="#3DB8A9"/><rect x="794" y="348" width="15" height="15" rx="3" fill="#3DB8A9"/><rect x="812" y="348" width="15" height="15" rx="3" fill="#3DB8A9"/><rect x="686" y="366" width="15" height="15" rx="3" fill="#3DB8A9"/><rect x="704" y="366" width="15" height="15" rx="3" fill="#3DB8A9"/><rect x="722" y="366" width="15" height="15" rx="3" fill="#3DB8A9"/><rect x="740" y="366" width="15" height="15" rx="3" fill="#3DB8A9"/><rect x="758" y="366" width="15" height="15" rx="3" fill="#3DB8A9"/><rect x="776" y="366" width="15" height="15" rx="3" fill="#3DB8A9"/><rect x="794" y="366" width="15" height="15" rx="3" fill="#3DB8A9"/><rect x="812" y="366" width="15" height="15" rx="3" fill="#3DB8A9"/><rect x="686" y="384" width="15" height="15" rx="3" fill="#3DB8A9"/><rect x="704" y="384" width="15" height="15" rx="3" fill="#3DB8A9"/><rect x="722" y="384" width="15" height="15" rx="3" fill="#3DB8A9"/><rect x="740" y="384" width="15" height="15" rx="3" fill="#3DB8A9"/><rect x="758" y="384" width="15" height="15" rx="3" fill="#3DB8A9"/><rect x="776" y="384" width="15" height="15" rx="3" fill="#3DB8A9"/><rect x="794" y="384" width="15" height="15" rx="3" fill="#3DB8A9"/><rect x="812" y="384" width="15" height="15" rx="3" fill="#3DB8A9"/><rect x="686" y="402" width="15" height="15" rx="3" fill="#3DB8A9"/><rect x="704" y="402" width="15" height="15" rx="3" fill="#3DB8A9"/><rect x="722" y="402" width="15" height="15" rx="3" fill="#3DB8A9"/><rect x="740" y="402" width="15" height="15" rx="3" fill="#3DB8A9"/><rect x="758" y="402" width="15" height="15" rx="3" fill="#3DB8A9"/><rect x="776" y="402" width="15" height="15" rx="3" fill="#3DB8A9"/><rect x="794" y="402" width="15" height="15" rx="3" fill="#3DB8A9"/><rect x="812" y="402" width="15" height="15" rx="3" fill="#3DB8A9"/><rect x="686" y="420" width="15" height="15" rx="3" fill="#3DB8A9"/><rect x="704" y="420" width="15" height="15" rx="3" fill="#3DB8A9"/><rect x="722" y="420" width="15" height="15" rx="3" fill="#3DB8A9"/><rect x="740" y="420" width="15" height="15" rx="3" fill="#3DB8A9"/><rect x="758" y="420" width="15" height="15" rx="3" fill="#3DB8A9"/><rect x="776" y="420" width="15" height="15" rx="3" fill="#3DB8A9"/><rect x="794" y="420" width="15" height="15" rx="3" fill="#3DB8A9"/><rect x="812" y="420" width="15" height="15" rx="3" fill="#3DB8A9"/>

  <text x="450" y="312" fill="#E8B84A" font-size="30" font-weight="700" text-anchor="middle">→</text>
  <text x="450" y="384" fill="#8C979D" font-size="14" text-anchor="middle">15 sites</text>

  <line x1="40" y1="442" x2="860" y2="442" stroke="rgba(255,255,255,.07)"/>
  <text x="40" y="470" fill="#F5F1E8" font-size="15">13 of 15 sites served nothing but llms.txt</text>
  <text x="40" y="494" fill="#8C979D" font-size="14">Measured 11.09.2026 and 12.09.2026. Every signal is one curl request away.</text>
  <text x="860" y="494" fill="#8C979D" font-size="14" text-anchor="end">oper-stack.com</text>
</svg>